<svg width="24" height="21" viewBox="0 0 24 21" fill="none" xmlns="http://www.w3.org/2000/svg">
<path d="M13.8407 20.2248V14.3427C13.8407 12.4839 15.3681 10.9711 17.2449 10.9711C19.1218 10.9711 20.6491 12.4839 20.6491 14.3427V20.2248H23.9865V14.3427C23.9865 10.6613 20.962 7.6658 17.2449 7.6658C13.5279 7.6658 10.5034 10.6613 10.5034 14.3427V20.2248H13.8407Z" fill="#195BEF"/>
<path d="M17.245 5.43944C18.7223 5.43944 19.92 4.25326 19.92 2.79003C19.92 1.32681 18.7223 0.140625 17.245 0.140625C15.7676 0.140625 14.5699 1.32681 14.5699 2.79003C14.5699 4.25326 15.7676 5.43944 17.245 5.43944Z" fill="#195BEF"/>
<path d="M3.6928 14.3427C3.6928 12.4839 5.22017 10.9711 7.09701 10.9711C8.97386 10.9711 10.5012 12.4839 10.5012 14.3427V20.2248H13.8386V14.3427C13.8386 10.6613 10.814 7.6658 7.09701 7.6658C3.38 7.6658 0.355469 10.6613 0.355469 14.3449V20.227H3.6928V14.3427Z" fill="#195BEF"/>
<path d="M7.09704 5.43944C8.57442 5.43944 9.77208 4.25326 9.77208 2.79003C9.77208 1.32681 8.57442 0.140625 7.09704 0.140625C5.61965 0.140625 4.42199 1.32681 4.42199 2.79003C4.42199 4.25326 5.61965 5.43944 7.09704 5.43944Z" fill="#195BEF"/>
</svg>
